<?xml version="1.0" encoding="UTF-8"?>
<svg id="Layer_1" xmlns="http://www.w3.org/2000/svg" xmlns:xlink="http://www.w3.org/1999/xlink" version="1.1" viewBox="0 0 763.32 19.41">
  <!-- Generator: Adobe Illustrator 29.7.1, SVG Export Plug-In . SVG Version: 2.1.1 Build 8)  -->
  <defs>
    <style>
      .st0 {
        fill: url(#linear-gradient);
      }
    </style>
    <linearGradient id="linear-gradient" x1="-79.59" y1="7.12" x2="740.93" y2="12.49" gradientUnits="userSpaceOnUse">
      <stop offset="0" stop-color="#cc8a17"/>
      <stop offset=".11" stop-color="#f2d28d"/>
      <stop offset="1" stop-color="#fff4db"/>
    </linearGradient>
  </defs>
  <g>
    <path d="M0,16.42l2.55-2.94c1.3,1.3,2.96,1.95,4.63,1.95,1.79,0,2.78-.75,2.78-1.79,0-1.12-.86-1.69-3.12-1.69l-2.11.03v-3.74h2.11c1.79.03,2.76-.57,2.76-1.61,0-1.09-1.07-1.74-2.68-1.74s-2.89.75-4.06,1.9L.36,4.06C1.9,2.27,4.08.89,7.38.89c4.21,0,6.73,2.08,6.73,4.89,0,2-1.3,3.51-3.3,4.08,1.98.47,3.69,1.87,3.69,4.16,0,3.15-2.78,5.38-7.1,5.38-3.3,0-5.82-1.22-7.41-2.99Z"/>
    <path d="M22.49,10.41l-2.29-3.26h-1.27v3.26h-2.59V0h4.83c2.29,0,3.95,1.47,3.95,3.58,0,1.52-.86,2.71-2.21,3.26l2.52,3.58h-2.94ZM18.93,4.79h2c.89,0,1.53-.49,1.53-1.21s-.64-1.21-1.53-1.21h-2v2.42Z"/>
    <path d="M26.81,0h3.8c3.58,0,6.09,2.15,6.09,5.2s-2.52,5.21-6.09,5.21h-3.8V0ZM31.01,8.06c1.77,0,3.05-1.2,3.05-2.86s-1.27-2.85-3.05-2.85h-1.61v5.71h1.61Z"/>
    <path d="M54.35,8.82h8.14v7.46c-1.82,1.95-4.55,3.09-7.31,3.09-5.28,0-9.7-4.24-9.7-9.26S49.9.89,55.18.89c2.76,0,5.49,1.14,7.31,3.07l-3.25,2.89c-.96-1.2-2.52-1.92-4.06-1.92-2.78,0-5.15,2.39-5.15,5.2s2.37,5.23,5.15,5.23c1.04,0,2.11-.34,2.99-.94v-2.24h-3.82v-3.35Z"/>
    <path d="M81.65,1.21v17.86h-4.45v-7.12h-7.31v7.12h-4.45V1.21h4.45v6.76h7.31V1.21h4.45Z"/>
    <path d="M96.6,16.47h-7.07l-1.04,2.6h-4.99l7.07-17.86h4.99l7.07,17.86h-4.99l-1.04-2.6ZM95.22,12.98l-2.16-5.49-2.16,5.49h4.32Z"/>
    <path d="M103.9,10.04h7.25v3.67h-7.25v-3.67Z"/>
    <path d="M112.64,16.39l2.5-2.99c1.74,1.43,3.69,2.26,5.88,2.26,1.66,0,2.52-.68,2.52-1.64,0-1.07-.83-1.3-3.43-1.92-3.82-.86-6.66-1.9-6.66-5.49s2.76-5.72,6.84-5.72c2.99,0,5.33.86,7.23,2.44l-2.26,3.17c-1.64-1.25-3.43-1.9-5.1-1.9-1.43,0-2.24.68-2.24,1.56,0,1.09.86,1.46,3.51,2.03,4,.86,6.58,2,6.58,5.36,0,3.59-2.73,5.82-7.15,5.82-3.17,0-6.06-1.04-8.22-2.99Z"/>
    <path d="M129.82,10.12c0-5.02,4.39-9.23,9.59-9.23,2.78,0,5.33,1.2,7.1,3.07l-3.25,2.89c-.94-1.17-2.34-1.92-3.85-1.92-2.73,0-5.04,2.39-5.04,5.2s2.31,5.23,5.04,5.23c1.53,0,2.91-.75,3.87-1.92l3.22,2.86c-1.77,1.9-4.32,3.09-7.1,3.09-5.2,0-9.59-4.24-9.59-9.26Z"/>
    <path d="M160.35,16.47h-7.07l-1.04,2.6h-4.99l7.07-17.86h4.99l7.07,17.86h-4.99l-1.04-2.6ZM158.97,12.98l-2.16-5.49-2.16,5.49h4.32Z"/>
    <path d="M168.3,1.21h4.45v17.86h-4.45V1.21Z"/>
    <path d="M182.06,16.39l2.5-2.99c1.74,1.43,3.69,2.26,5.88,2.26,1.66,0,2.52-.68,2.52-1.64,0-1.07-.83-1.3-3.43-1.92-3.82-.86-6.66-1.9-6.66-5.49s2.76-5.72,6.84-5.72c2.99,0,5.33.86,7.23,2.44l-2.26,3.17c-1.64-1.25-3.43-1.9-5.1-1.9-1.43,0-2.24.68-2.24,1.56,0,1.09.86,1.46,3.51,2.03,4,.86,6.58,2,6.58,5.36,0,3.59-2.73,5.82-7.15,5.82-3.17,0-6.06-1.04-8.22-2.99Z"/>
    <path d="M216.12,1.21v17.86h-4.45v-7.12h-7.31v7.12h-4.45V1.21h4.45v6.76h7.31V1.21h4.45Z"/>
    <path d="M218.77,10.12c0-5.02,4.39-9.23,9.59-9.23s9.62,4.21,9.62,9.23-4.39,9.26-9.62,9.26-9.59-4.24-9.59-9.26ZM233.41,10.12c0-2.81-2.31-5.2-5.04-5.2s-5.04,2.39-5.04,5.2,2.31,5.23,5.04,5.23,5.04-2.39,5.04-5.23Z"/>
    <path d="M239.91,10.12c0-5.02,4.39-9.23,9.59-9.23,2.78,0,5.33,1.2,7.1,3.07l-3.25,2.89c-.94-1.17-2.34-1.92-3.85-1.92-2.73,0-5.04,2.39-5.04,5.2s2.31,5.23,5.04,5.23c1.53,0,2.91-.75,3.87-1.92l3.22,2.86c-1.77,1.9-4.32,3.09-7.1,3.09-5.2,0-9.59-4.24-9.59-9.26Z"/>
    <path d="M258.86,1.21h4.45v7.62l6.63-7.62h5.28l-6.79,7.59,7.31,10.27h-5.36l-5.02-7.07-2.05,2.21v4.86h-4.45V1.21Z"/>
    <path d="M284.58,1.21h4.45l5.15,9.31,5.15-9.31h4.45v17.86h-4.45v-10.35l-5.15,9.31-5.15-9.31v10.35h-4.45V1.21Z"/>
    <path d="M307.25,1.21h4.45v17.86h-4.45V1.21Z"/>
    <path d="M315.15,1.21h6.53c6.14,0,10.45,3.69,10.45,8.92s-4.32,8.94-10.45,8.94h-6.53V1.21ZM322.35,15.04c3.04,0,5.23-2.05,5.23-4.91s-2.18-4.89-5.23-4.89h-2.76v9.8h2.76Z"/>
    <path d="M334.91,1.21h6.53c6.14,0,10.45,3.69,10.45,8.92s-4.32,8.94-10.45,8.94h-6.53V1.21ZM342.11,15.04c3.04,0,5.23-2.05,5.23-4.91s-2.18-4.89-5.23-4.89h-2.76v9.8h2.76Z"/>
    <path d="M367.57,15.09v3.98h-13.03V1.21h4.42v13.88h8.61Z"/>
    <path d="M374.35,5.18v2.78h8.74v3.98h-8.74v3.15h9.62v3.98h-14.07V1.21h14.07v3.98h-9.62Z"/>
    <path d="M398.33,5.18v2.78h8.74v3.98h-8.74v3.15h9.62v3.98h-14.07V1.21h14.07v3.98h-9.62Z"/>
    <path d="M422.3,16.47h-7.07l-1.04,2.6h-4.99l7.07-17.86h4.99l7.07,17.86h-4.99l-1.04-2.6ZM420.92,12.98l-2.16-5.49-2.16,5.49h4.32Z"/>
    <path d="M428.93,16.39l2.5-2.99c1.74,1.43,3.69,2.26,5.88,2.26,1.66,0,2.52-.68,2.52-1.64,0-1.07-.83-1.3-3.43-1.92-3.82-.86-6.66-1.9-6.66-5.49s2.76-5.72,6.84-5.72c2.99,0,5.33.86,7.23,2.44l-2.26,3.17c-1.64-1.25-3.43-1.9-5.1-1.9-1.43,0-2.24.68-2.24,1.56,0,1.09.86,1.46,3.51,2.03,4,.86,6.58,2,6.58,5.36,0,3.59-2.73,5.82-7.15,5.82-3.17,0-6.06-1.04-8.22-2.99Z"/>
    <path d="M451.26,5.18h-5.43V1.21h15.29v3.98h-5.41v13.88h-4.45V5.18Z"/>
    <path d="M471.05,1.21h3.25v8.74l7.83-8.74h3.98l-7.15,7.88,7.67,9.98h-4l-5.9-7.7-2.42,2.6v5.1h-3.25V1.21Z"/>
    <path d="M488.73,11.45V1.21h3.25v10.14c0,2.96,1.92,5.1,4.63,5.1s4.65-2.13,4.65-5.1V1.21h3.22v10.24c0,4.65-3.25,7.93-7.88,7.93s-7.88-3.28-7.88-7.93Z"/>
    <path d="M507.03,1.21h3.56l3.82,12.79,4.24-12.79h3.54l4.21,12.79,3.82-12.79h3.56l-5.64,17.86h-3.25l-4.47-13.26-4.5,13.26h-3.22l-5.67-17.86Z"/>
    <path d="M547.49,15.84h-8.63l-1.35,3.22h-3.61l7.46-17.86h3.61l7.46,17.86h-3.59l-1.35-3.22ZM546.32,13.04l-3.15-7.51-3.15,7.51h6.29Z"/>
    <path d="M554.84,1.21h3.22v17.86h-3.22V1.21Z"/>
    <path d="M566.62,4.17h-5.72V1.21h14.66v2.96h-5.72v14.9h-3.22V4.17Z"/>
    <path d="M584.94,8.96h5.92v2.35h-5.92v-2.35Z"/>
    <g>
      <path d="M598.54,14.02l1.85-1.8c.53,1.06,1.69,1.83,2.84,1.83,1.5,0,2.55-1.19,2.55-2.88V1.15h2.73v10.19c0,3.04-2.09,5.19-5.04,5.19-1.89,0-3.94-1.03-4.93-2.51Z"/>
      <path d="M622.03,13.54h-7.31l-1.14,2.73h-3.06l6.31-15.12h3.06l6.31,15.12h-3.04l-1.14-2.73ZM621.04,11.16l-2.66-6.36-2.66,6.36h5.32Z"/>
      <path d="M628.41,1.15h2.75l7.99,10.63V1.15h2.73v15.12h-2.73l-7.99-10.63v10.63h-2.75V1.15Z"/>
      <path d="M662.8,8.45c0,4.67-2.75,8.08-6.69,8.08-1.87,0-3.3-.66-4.51-1.69l1.34-2.09c.92.81,1.85,1.36,3.19,1.36,2.13,0,3.65-2.05,3.83-5.02-.92,1.08-2.38,1.72-3.92,1.72-2.77,0-5.08-1.76-5.08-4.77s2.38-5.15,5.63-5.15c4.29,0,6.21,3.21,6.21,7.57ZM659.83,6.47c-.33-2-1.28-3.26-3.1-3.26s-2.97,1.32-2.97,2.71c0,1.65,1.36,2.64,3.01,2.64,1.45,0,2.62-.81,3.06-2.09Z"/>
      <path d="M664.93,9.05h5.92v2.35h-5.92v-2.35Z"/>
      <path d="M676.04,4.32l-2.6,1.65-1.12-1.94,4.25-2.88h2.2v15.12h-2.73V4.32Z"/>
      <path d="M681.67,8.69c0-4.58,2.75-7.81,6.65-7.81s6.6,3.23,6.6,7.81-2.73,7.83-6.6,7.83-6.65-3.23-6.65-7.83ZM692.12,8.69c0-3.12-1.58-5.3-3.81-5.3s-3.83,2.18-3.83,5.3,1.58,5.33,3.83,5.33,3.81-2.2,3.81-5.33Z"/>
      <path d="M697.8,18.6c.66-.66,1.1-1.36,1.28-2.07-.92,0-1.67-.79-1.67-1.74s.77-1.72,1.72-1.72c1.12,0,1.85,1.01,1.85,2.4,0,1.19-.64,2.33-2.11,3.92l-1.06-.79Z"/>
      <path d="M709.46,14.02l5.57-4.45c1.91-1.54,2.6-2.68,2.6-3.92,0-1.43-1.21-2.31-2.57-2.31-1.58,0-2.73.81-3.83,2.13l-1.78-1.65c1.43-1.87,3.26-2.95,5.7-2.95,2.99,0,5.28,1.91,5.28,4.71,0,2-.92,3.61-3.52,5.61l-3.17,2.55h6.84v2.51h-11.11v-2.24Z"/>
      <path d="M722.81,8.69c0-4.58,2.75-7.81,6.65-7.81s6.6,3.23,6.6,7.81-2.73,7.83-6.6,7.83-6.65-3.23-6.65-7.83ZM733.26,8.69c0-3.12-1.58-5.3-3.81-5.3s-3.83,2.18-3.83,5.3,1.58,5.33,3.83,5.33,3.81-2.2,3.81-5.33Z"/>
      <path d="M738.15,14.02l5.57-4.45c1.91-1.54,2.6-2.68,2.6-3.92,0-1.43-1.21-2.31-2.57-2.31-1.58,0-2.73.81-3.83,2.13l-1.78-1.65c1.43-1.87,3.26-2.95,5.7-2.95,2.99,0,5.28,1.91,5.28,4.71,0,2-.92,3.61-3.52,5.61l-3.17,2.55h6.84v2.51h-11.11v-2.24Z"/>
      <path d="M763.32,11.38c0,2.99-2.38,5.15-5.63,5.15-4.29,0-6.21-3.21-6.21-7.57,0-4.67,2.75-8.08,6.69-8.08,1.87,0,3.3.66,4.51,1.69l-1.34,2.09c-.92-.81-1.85-1.36-3.19-1.36-2.13,0-3.65,2.05-3.83,5.02.92-1.08,2.38-1.72,3.92-1.72,2.77,0,5.08,1.76,5.08,4.77ZM760.52,11.49c0-1.65-1.36-2.64-3.01-2.64-1.45,0-2.62.81-3.06,2.09.33,2,1.28,3.26,3.1,3.26s2.97-1.32,2.97-2.71Z"/>
    </g>
  </g>
  <g>
    <path class="st0" d="M0,16.42l2.55-2.94c1.3,1.3,2.96,1.95,4.63,1.95,1.79,0,2.78-.75,2.78-1.79,0-1.12-.86-1.69-3.12-1.69l-2.11.03v-3.74h2.11c1.79.03,2.76-.57,2.76-1.61,0-1.09-1.07-1.74-2.68-1.74s-2.89.75-4.06,1.9L.36,4.06C1.9,2.27,4.08.89,7.38.89c4.21,0,6.73,2.08,6.73,4.89,0,2-1.3,3.51-3.3,4.08,1.98.47,3.69,1.87,3.69,4.16,0,3.15-2.78,5.38-7.1,5.38-3.3,0-5.82-1.22-7.41-2.99Z"/>
    <path class="st0" d="M22.49,10.41l-2.29-3.26h-1.27v3.26h-2.59V0h4.83c2.29,0,3.95,1.47,3.95,3.58,0,1.52-.86,2.71-2.21,3.26l2.52,3.58h-2.94ZM18.93,4.79h2c.89,0,1.53-.49,1.53-1.21s-.64-1.21-1.53-1.21h-2v2.42Z"/>
    <path class="st0" d="M26.81,0h3.8c3.58,0,6.09,2.15,6.09,5.2s-2.52,5.21-6.09,5.21h-3.8V0ZM31.01,8.06c1.77,0,3.05-1.2,3.05-2.86s-1.27-2.85-3.05-2.85h-1.61v5.71h1.61Z"/>
    <path class="st0" d="M54.35,8.82h8.14v7.46c-1.82,1.95-4.55,3.09-7.31,3.09-5.28,0-9.7-4.24-9.7-9.26S49.9.89,55.18.89c2.76,0,5.49,1.14,7.31,3.07l-3.25,2.89c-.96-1.2-2.52-1.92-4.06-1.92-2.78,0-5.15,2.39-5.15,5.2s2.37,5.23,5.15,5.23c1.04,0,2.11-.34,2.99-.94v-2.24h-3.82v-3.35Z"/>
    <path class="st0" d="M81.65,1.21v17.86h-4.45v-7.12h-7.31v7.12h-4.45V1.21h4.45v6.76h7.31V1.21h4.45Z"/>
    <path class="st0" d="M96.6,16.47h-7.07l-1.04,2.6h-4.99l7.07-17.86h4.99l7.07,17.86h-4.99l-1.04-2.6ZM95.22,12.98l-2.16-5.49-2.16,5.49h4.32Z"/>
    <path class="st0" d="M103.9,10.04h7.25v3.67h-7.25v-3.67Z"/>
    <path class="st0" d="M112.64,16.39l2.5-2.99c1.74,1.43,3.69,2.26,5.88,2.26,1.66,0,2.52-.68,2.52-1.64,0-1.07-.83-1.3-3.43-1.92-3.82-.86-6.66-1.9-6.66-5.49s2.76-5.72,6.84-5.72c2.99,0,5.33.86,7.23,2.44l-2.26,3.17c-1.64-1.25-3.43-1.9-5.1-1.9-1.43,0-2.24.68-2.24,1.56,0,1.09.86,1.46,3.51,2.03,4,.86,6.58,2,6.58,5.36,0,3.59-2.73,5.82-7.15,5.82-3.17,0-6.06-1.04-8.22-2.99Z"/>
    <path class="st0" d="M129.82,10.12c0-5.02,4.39-9.23,9.59-9.23,2.78,0,5.33,1.2,7.1,3.07l-3.25,2.89c-.94-1.17-2.34-1.92-3.85-1.92-2.73,0-5.04,2.39-5.04,5.2s2.31,5.23,5.04,5.23c1.53,0,2.91-.75,3.87-1.92l3.22,2.86c-1.77,1.9-4.32,3.09-7.1,3.09-5.2,0-9.59-4.24-9.59-9.26Z"/>
    <path class="st0" d="M160.35,16.47h-7.07l-1.04,2.6h-4.99l7.07-17.86h4.99l7.07,17.86h-4.99l-1.04-2.6ZM158.97,12.98l-2.16-5.49-2.16,5.49h4.32Z"/>
    <path class="st0" d="M168.3,1.21h4.45v17.86h-4.45V1.21Z"/>
    <path class="st0" d="M182.06,16.39l2.5-2.99c1.74,1.43,3.69,2.26,5.88,2.26,1.66,0,2.52-.68,2.52-1.64,0-1.07-.83-1.3-3.43-1.92-3.82-.86-6.66-1.9-6.66-5.49s2.76-5.72,6.84-5.72c2.99,0,5.33.86,7.23,2.44l-2.26,3.17c-1.64-1.25-3.43-1.9-5.1-1.9-1.43,0-2.24.68-2.24,1.56,0,1.09.86,1.46,3.51,2.03,4,.86,6.58,2,6.58,5.36,0,3.59-2.73,5.82-7.15,5.82-3.17,0-6.06-1.04-8.22-2.99Z"/>
    <path class="st0" d="M216.12,1.21v17.86h-4.45v-7.12h-7.31v7.12h-4.45V1.21h4.45v6.76h7.31V1.21h4.45Z"/>
    <path class="st0" d="M218.77,10.12c0-5.02,4.39-9.23,9.59-9.23s9.62,4.21,9.62,9.23-4.39,9.26-9.62,9.26-9.59-4.24-9.59-9.26ZM233.41,10.12c0-2.81-2.31-5.2-5.04-5.2s-5.04,2.39-5.04,5.2,2.31,5.23,5.04,5.23,5.04-2.39,5.04-5.23Z"/>
    <path class="st0" d="M239.91,10.12c0-5.02,4.39-9.23,9.59-9.23,2.78,0,5.33,1.2,7.1,3.07l-3.25,2.89c-.94-1.17-2.34-1.92-3.85-1.92-2.73,0-5.04,2.39-5.04,5.2s2.31,5.23,5.04,5.23c1.53,0,2.91-.75,3.87-1.92l3.22,2.86c-1.77,1.9-4.32,3.09-7.1,3.09-5.2,0-9.59-4.24-9.59-9.26Z"/>
    <path class="st0" d="M258.86,1.21h4.45v7.62l6.63-7.62h5.28l-6.79,7.59,7.31,10.27h-5.36l-5.02-7.07-2.05,2.21v4.86h-4.45V1.21Z"/>
    <path class="st0" d="M284.58,1.21h4.45l5.15,9.31,5.15-9.31h4.45v17.86h-4.45v-10.35l-5.15,9.31-5.15-9.31v10.35h-4.45V1.21Z"/>
    <path class="st0" d="M307.25,1.21h4.45v17.86h-4.45V1.21Z"/>
    <path class="st0" d="M315.15,1.21h6.53c6.14,0,10.45,3.69,10.45,8.92s-4.32,8.94-10.45,8.94h-6.53V1.21ZM322.35,15.04c3.04,0,5.23-2.05,5.23-4.91s-2.18-4.89-5.23-4.89h-2.76v9.8h2.76Z"/>
    <path class="st0" d="M334.91,1.21h6.53c6.14,0,10.45,3.69,10.45,8.92s-4.32,8.94-10.45,8.94h-6.53V1.21ZM342.11,15.04c3.04,0,5.23-2.05,5.23-4.91s-2.18-4.89-5.23-4.89h-2.76v9.8h2.76Z"/>
    <path class="st0" d="M367.57,15.09v3.98h-13.03V1.21h4.42v13.88h8.61Z"/>
    <path class="st0" d="M374.35,5.18v2.78h8.74v3.98h-8.74v3.15h9.62v3.98h-14.07V1.21h14.07v3.98h-9.62Z"/>
    <path class="st0" d="M398.33,5.18v2.78h8.74v3.98h-8.74v3.15h9.62v3.98h-14.07V1.21h14.07v3.98h-9.62Z"/>
    <path class="st0" d="M422.3,16.47h-7.07l-1.04,2.6h-4.99l7.07-17.86h4.99l7.07,17.86h-4.99l-1.04-2.6ZM420.92,12.98l-2.16-5.49-2.16,5.49h4.32Z"/>
    <path class="st0" d="M428.93,16.39l2.5-2.99c1.74,1.43,3.69,2.26,5.88,2.26,1.66,0,2.52-.68,2.52-1.64,0-1.07-.83-1.3-3.43-1.92-3.82-.86-6.66-1.9-6.66-5.49s2.76-5.72,6.84-5.72c2.99,0,5.33.86,7.23,2.44l-2.26,3.17c-1.64-1.25-3.43-1.9-5.1-1.9-1.43,0-2.24.68-2.24,1.56,0,1.09.86,1.46,3.51,2.03,4,.86,6.58,2,6.58,5.36,0,3.59-2.73,5.82-7.15,5.82-3.17,0-6.06-1.04-8.22-2.99Z"/>
    <path class="st0" d="M451.26,5.18h-5.43V1.21h15.29v3.98h-5.41v13.88h-4.45V5.18Z"/>
    <path class="st0" d="M471.05,1.21h3.25v8.74l7.83-8.74h3.98l-7.15,7.88,7.67,9.98h-4l-5.9-7.7-2.42,2.6v5.1h-3.25V1.21Z"/>
    <path class="st0" d="M488.73,11.45V1.21h3.25v10.14c0,2.96,1.92,5.1,4.63,5.1s4.65-2.13,4.65-5.1V1.21h3.22v10.24c0,4.65-3.25,7.93-7.88,7.93s-7.88-3.28-7.88-7.93Z"/>
    <path class="st0" d="M507.03,1.21h3.56l3.82,12.79,4.24-12.79h3.54l4.21,12.79,3.82-12.79h3.56l-5.64,17.86h-3.25l-4.47-13.26-4.5,13.26h-3.22l-5.67-17.86Z"/>
    <path class="st0" d="M547.49,15.84h-8.63l-1.35,3.22h-3.61l7.46-17.86h3.61l7.46,17.86h-3.59l-1.35-3.22ZM546.32,13.04l-3.15-7.51-3.15,7.51h6.29Z"/>
    <path class="st0" d="M554.84,1.21h3.22v17.86h-3.22V1.21Z"/>
    <path class="st0" d="M566.62,4.17h-5.72V1.21h14.66v2.96h-5.72v14.9h-3.22V4.17Z"/>
    <path class="st0" d="M584.94,8.96h5.92v2.35h-5.92v-2.35Z"/>
    <g>
      <path class="st0" d="M598.54,14.02l1.85-1.8c.53,1.06,1.69,1.83,2.84,1.83,1.5,0,2.55-1.19,2.55-2.88V1.15h2.73v10.19c0,3.04-2.09,5.19-5.04,5.19-1.89,0-3.94-1.03-4.93-2.51Z"/>
      <path class="st0" d="M622.03,13.54h-7.31l-1.14,2.73h-3.06l6.31-15.12h3.06l6.31,15.12h-3.04l-1.14-2.73ZM621.04,11.16l-2.66-6.36-2.66,6.36h5.32Z"/>
      <path class="st0" d="M628.41,1.15h2.75l7.99,10.63V1.15h2.73v15.12h-2.73l-7.99-10.63v10.63h-2.75V1.15Z"/>
      <path class="st0" d="M662.8,8.45c0,4.67-2.75,8.08-6.69,8.08-1.87,0-3.3-.66-4.51-1.69l1.34-2.09c.92.81,1.85,1.36,3.19,1.36,2.13,0,3.65-2.05,3.83-5.02-.92,1.08-2.38,1.72-3.92,1.72-2.77,0-5.08-1.76-5.08-4.77s2.38-5.15,5.63-5.15c4.29,0,6.21,3.21,6.21,7.57ZM659.83,6.47c-.33-2-1.28-3.26-3.1-3.26s-2.97,1.32-2.97,2.71c0,1.65,1.36,2.64,3.01,2.64,1.45,0,2.62-.81,3.06-2.09Z"/>
      <path class="st0" d="M664.93,9.05h5.92v2.35h-5.92v-2.35Z"/>
      <path class="st0" d="M676.04,4.32l-2.6,1.65-1.12-1.94,4.25-2.88h2.2v15.12h-2.73V4.32Z"/>
      <path class="st0" d="M681.67,8.69c0-4.58,2.75-7.81,6.65-7.81s6.6,3.23,6.6,7.81-2.73,7.83-6.6,7.83-6.65-3.23-6.65-7.83ZM692.12,8.69c0-3.12-1.58-5.3-3.81-5.3s-3.83,2.18-3.83,5.3,1.58,5.33,3.83,5.33,3.81-2.2,3.81-5.33Z"/>
      <path class="st0" d="M697.8,18.6c.66-.66,1.1-1.36,1.28-2.07-.92,0-1.67-.79-1.67-1.74s.77-1.72,1.72-1.72c1.12,0,1.85,1.01,1.85,2.4,0,1.19-.64,2.33-2.11,3.92l-1.06-.79Z"/>
      <path class="st0" d="M709.46,14.02l5.57-4.45c1.91-1.54,2.6-2.68,2.6-3.92,0-1.43-1.21-2.31-2.57-2.31-1.58,0-2.73.81-3.83,2.13l-1.78-1.65c1.43-1.87,3.26-2.95,5.7-2.95,2.99,0,5.28,1.91,5.28,4.71,0,2-.92,3.61-3.52,5.61l-3.17,2.55h6.84v2.51h-11.11v-2.24Z"/>
      <path class="st0" d="M722.81,8.69c0-4.58,2.75-7.81,6.65-7.81s6.6,3.23,6.6,7.81-2.73,7.83-6.6,7.83-6.65-3.23-6.65-7.83ZM733.26,8.69c0-3.12-1.58-5.3-3.81-5.3s-3.83,2.18-3.83,5.3,1.58,5.33,3.83,5.33,3.81-2.2,3.81-5.33Z"/>
      <path class="st0" d="M738.15,14.02l5.57-4.45c1.91-1.54,2.6-2.68,2.6-3.92,0-1.43-1.21-2.31-2.57-2.31-1.58,0-2.73.81-3.83,2.13l-1.78-1.65c1.43-1.87,3.26-2.95,5.7-2.95,2.99,0,5.28,1.91,5.28,4.71,0,2-.92,3.61-3.52,5.61l-3.17,2.55h6.84v2.51h-11.11v-2.24Z"/>
      <path class="st0" d="M763.32,11.38c0,2.99-2.38,5.15-5.63,5.15-4.29,0-6.21-3.21-6.21-7.57,0-4.67,2.75-8.08,6.69-8.08,1.87,0,3.3.66,4.51,1.69l-1.34,2.09c-.92-.81-1.85-1.36-3.19-1.36-2.13,0-3.65,2.05-3.83,5.02.92-1.08,2.38-1.72,3.92-1.72,2.77,0,5.08,1.76,5.08,4.77ZM760.52,11.49c0-1.65-1.36-2.64-3.01-2.64-1.45,0-2.62.81-3.06,2.09.33,2,1.28,3.26,3.1,3.26s2.97-1.32,2.97-2.71Z"/>
    </g>
  </g>
</svg>